<?xml version="1.0" encoding="UTF-8"?>
<svg id="Layer_1" xmlns="http://www.w3.org/2000/svg" version="1.1" viewBox="0 0 435 172.4">
  <!-- Generator: Adobe Illustrator 29.0.1, SVG Export Plug-In . SVG Version: 2.1.0 Build 192)  -->
  <defs>
    <style>
      .st0 {
        fill: #b92230;
      }

      .st1 {
        fill: #1b3d6a;
      }
    </style>
  </defs>
  <path class="st0" d="M183.5,38.9c-1.8,1.8-4.2,5.7-5.4,8.5l-2.1,5.1,118.7-.2,118.7-.3,3.7-2.3c3.1-1.9,9.8-11.2,9.8-13.6s-54.1-.6-120.1-.6h-120.2l-3.1,3.4h0Z"/>
  <path class="st1" d="M964.2,38.5c-9.6,2-18,9.1-20.2,17.3-.8,2.9-1.1,13.7-.9,35.2.3,30.3.4,31.1,2.7,35.8,4.2,8.5,12.6,12.9,24.7,12.9,13.4.1,23.7-6.7,26.9-17.6,1.4-4.6,1.6-10.3,1.3-35.8-.3-28.9-.4-30.5-2.5-34.3-2.7-5.1-7.8-10-12.3-11.9-4.7-1.9-14.4-2.7-19.7-1.6ZM974.3,54.5c1.4.5,3.5,2.4,4.6,4.2,1.9,3.1,2,5.1,2,30.4s0,27.2-2.3,30.5c-2,3-2.8,3.4-7.4,3.7s-5.3,0-7.6-2.7c-3.5-4.2-3.9-9.2-3.5-36.1.4-24.8.9-27.3,6.3-29.6,3.7-1.6,4.7-1.7,7.9-.4Z"/>
  <path class="st1" d="M1277.2,38.5c-9.6,2-18,9.1-20.2,17.3-.8,2.9-1.1,13.7-.9,35.2.3,30.3.4,31.1,2.7,35.8,4.2,8.5,12.6,12.9,24.7,12.9,16.5.1,26.6-8.9,28.1-24.8l.6-6.4h-18.3v4.4c0,3.3-.7,5.2-2.6,7.5-2.2,2.7-3.2,3.1-7.4,3.1s-5.2-.4-7.3-3c-3.4-4-3.9-9.1-3.5-36,.4-25.4.9-27.9,7.2-30,7.2-2.3,12.7,1.8,13.6,10.3l.5,5.2,8.9.3,8.9.3-.6-7.4c-.8-11.2-6.1-19.5-14.7-23.1-4.7-1.9-14.4-2.7-19.7-1.6h0Z"/>
  <path class="st1" d="M1344,38.5c-8.8,1.9-15.9,7.7-19.2,16-2,5-2,63.7,0,69.4,3.5,9.9,13.2,15.8,26.1,15.8s16.3-2.7,21.8-8.6c6.5-7,6.7-8.4,6.7-42.6s0-30.6-2.3-35.6c-1.3-2.9-3.5-6.3-5-7.7-5.9-5.7-18.5-8.7-28.1-6.7ZM1355.3,54.9c5.9,2.5,6.6,6,6.6,34.1s-1,34.5-11,34.5-8.6-3.1-9.5-8.1c-.3-1.9-.5-15-.3-29.1.3-24.2.4-25.8,2.4-28.5,1.8-2.3,4.4-3.8,7.7-4.2.4,0,2.3.5,4.1,1.3h0Z"/>
  <path class="st1" d="M1518.9,39.5c-11.4,3.9-17.9,15.1-16.7,29.1,1.1,13.1,5.4,18.3,21.1,25.9,11.3,5.4,14.1,8.1,15.2,14.6.8,5.2-1.1,11.9-3.9,13.9-1.2.8-3.9,1.5-6,1.5-5.1,0-9.4-4.1-10.3-9.9l-.7-4.1h-16.9l.7,5.2c1.6,11.6,8,20.5,16.7,22.9,2.4.6,7.1,1.1,10.4,1.1,18.3.1,28.5-11.7,27.1-31.3-1-14.3-5.4-20.1-21.8-28.3s-14.3-8.5-14.3-16.1,2.7-10.5,9.5-10.5,8.3,2.6,9.4,9l.7,4h16.1l-.6-4.9c-.8-6.9-4.3-14.6-8.3-18.1-3.8-3.3-11.8-6-17.8-6-2.3,0-6.6.9-9.6,2h0Z"/>
  <path class="st1" d="M1581.6,38.9c-6.5,1.8-11.7,6.1-14.9,12.6-2.4,4.5-2.8,6.6-2.8,13.3,0,15.6,3.7,21,19.9,29.2,14.3,7.2,15.6,8.6,15.6,18s-.3,7.7-2.4,9.9c-1.9,2-3.4,2.6-6.6,2.6-6.4,0-9.1-2.8-10.9-11.3-.6-2.7-.7-2.7-8.6-2.7h-8v3.7c0,5.4,1.5,10.2,5,15.6,4.3,6.8,11.1,9.9,22,9.9,18.1,0,27-9.5,27-28.6s-4.5-22.7-22.2-31.4c-12.7-6.2-14.3-8.2-13.6-17,.4-4.2,1-6,2.8-7.4,2.4-2,8.9-2.4,12-.8,2,1,4,5.9,4,9.6s.2,2.4,8.5,2.4,8.5,0,8.1-2.3c-.3-1.2-.8-4-1.1-6.2-1.3-7.6-6-14.1-12.8-17.6-4.9-2.6-14.8-3.3-21-1.5Z"/>
  <path class="st1" d="M1679.2,38.5c-8.4,1.8-14.8,6.4-18.6,13.5-2.1,3.9-2.2,5.1-2.2,37s0,33.1,2.2,37c3,5.6,8,10.1,13.3,12s15.8,2.2,21.7.6c5.7-1.6,12.3-6.8,15.3-12.1,2.5-4.5,2.5-4.6,2.8-35.3.3-25.4,0-31.7-1.2-36.1-1.8-6.2-7-12-13-14.7-5-2.2-14.7-3.1-20.3-1.9h0ZM1692.6,56.8c3.4,3.3,4.3,10.7,4.3,33.1,0,28.7-1.6,33.6-11,33.6s-9-2.9-10.1-9.7c-1.1-6.9-1.1-41.7,0-48.7,1.3-8.4,5.2-12.1,11.5-11.1,1.7.3,4,1.6,5.2,2.8Z"/>
  <path class="st1" d="M460.5,41.2c.2,1,4,22.3,8.4,47.3s8.3,46.5,8.5,47.7c.5,2.2,1,2.3,10,2.3s9.4-.2,9.9-1.8c.2-.9,2.6-14,5.3-29,2.6-14.9,5-27.2,5.3-27.2s2.8,12.9,5.6,28.7l5,28.8,9.7.3c5.3.1,9.7.1,9.7,0,0-.2,4-22.4,8.9-49.3l8.7-49-8.4-.3c-4.7-.2-8.6,0-8.9,0-.4.5-9.3,67-9.3,70.1,0,6.4-1.6-3.2-5.5-34.5-2.5-19.5-4.5-35.5-4.5-35.7s-4.9-.2-11-.2-11,.3-11,.7c0,2.2-8.2,68-8.7,69.3-.3.8-2.7-14.5-5.4-34-2.6-19.5-4.8-35.6-4.8-35.8,0,0-4.1-.2-9-.2-8,0-8.9.2-8.5,1.7Z"/>
  <path class="st1" d="M582.5,41.2c-1.1,3.7-24.6,95.7-24.6,96.5s4,.8,8.9.8c10.1,0,9.1.8,11.1-9.5,2-10.5.6-9.6,13.8-9.3l11.6.3.7,3.5c.4,1.9,1.2,6.1,1.9,9.2l1.1,5.8h18.5l-12.6-49.5-12.5-49.5h-8.7c-7.4,0-8.7.3-9.2,1.7ZM595.9,84c2.2,10.4,3.8,19,3.6,19.2s-3.9.3-8.2,0l-7.9-.3,3.9-19.2c2.2-10.6,4.1-19.1,4.3-19,.2.2,2.1,8.9,4.3,19.2h0Z"/>
  <path class="st1" d="M632.9,89v49.5h17l.2-19.8.3-19.7,4.1-.3,4.2-.3,3.7,11.8c2,6.5,4.8,15.5,6.3,20l2.6,8.3h18.5l-7.4-21.4-7.4-21.3,3.1-2.3c1.6-1.2,4.2-4.8,5.6-7.9,2.3-4.9,2.6-6.9,2.7-16.1,0-12.5-1.9-19.1-6.9-23.9-5.2-5-10.5-6.1-29.8-6.1h-16.8v49.5h0ZM664.9,56.5c3.9,2.1,5.4,14.7,2.6,21.5-1.2,2.7-2.3,3.6-5.6,4.5-2.3.6-5.8,1-7.8.8l-3.7-.3-.3-13.8-.3-13.7h6.6c3.7,0,7.5.4,8.5,1Z"/>
  <path class="st1" d="M723.9,89v49.5h18l.2-27.8.3-27.7,6,18.3,6,18.3,5-.3,4.9-.3,6.1-18.5,6-18.5.3,28.2.2,28.3h18V39.4l-9.2.3-9.1.3-8.5,25.3c-4.6,13.9-8.7,25-9.1,24.7-.3-.3-4.2-11.7-8.6-25.3l-8.1-24.7-9.2-.3-9.2-.3v49.6h0Z"/>
  <path class="st1" d="M806.9,89v49.5h44v-16h-27v-26h23v-16h-23v-25h27v-16h-44v49.5Z"/>
  <path class="st1" d="M860.9,89v49.5h18v-55.5l6.1,18.2,6,18.3h9.4l6.2-18.3,6.1-18.2v27.7c0,0,.2,27.8.2,27.8h18V39.5h-17.8l-8.2,24.7c-4.6,13.7-8.5,25.1-8.9,25.5s-4.5-10.7-9.1-24.7l-8.5-25.5h-17.5v49.5Z"/>
  <path class="st1" d="M1010.9,89v49.5h17l.2-19.8.3-19.7,4.2-.3,4.1-.3,4.2,13.3c2.3,7.3,5.1,16.3,6.3,20l2.1,6.8h18.5l-7.4-21.4-7.3-21.3,3-2.3c1.6-1.2,4.2-4.8,5.6-7.9,2.3-4.9,2.6-6.9,2.7-16.1,0-12.5-1.9-19.1-6.9-23.9-5.2-5-10.5-6.1-29.8-6.1h-16.8v49.5h0ZM1042.9,56.5c3.9,2.1,5.4,14.7,2.6,21.5-1.7,3.9-6.5,5.9-13.1,5.3l-4-.3-.3-13.8-.3-13.7h6.6c3.7,0,7.5.4,8.5,1h0Z"/>
  <path class="st1" d="M1077.9,89v49.5h17V39.5h-17v49.5Z"/>
  <path class="st1" d="M1127.9,40c0,.5-23.6,93-24.6,96.8-.5,1.6.2,1.8,8.7,1.5l9.3-.3,2-9.3,1.9-9.2h23.3l1.9,9.5,1.8,9.5h9.4c8.5,0,9.4-.2,8.9-1.8-.9-2.8-24.6-95.9-24.6-96.6s-4-.6-9-.6-9,.2-9,.5h0ZM1140.8,82.2c1.9,9.3,3.7,17.8,3.9,19,.4,2.2.2,2.3-7.7,2.3s-8.1-.3-8.1-.8c0-1.9,7.6-37.2,8-37.2s2.1,7.5,3.9,16.7h0Z"/>
  <path class="st1" d="M1177.9,89v49.5h44v-16h-26V39.5h-18v49.5Z"/>
  <path class="st1" d="M1390.9,89v49.5h18v-28.3c0,0,.2-28.2.2-28.2l6.1,18.8,6.1,18.8,4.9-.3,4.9-.3,6.1-18.5,6.2-18.5.3,28.2.2,28.3h17V39.4l-8.7.3-8.6.3-8.5,25.3c-4.6,14-8.8,25-9.2,24.5-.5-.4-4.4-11.8-8.8-25.3l-8-24.5-9.1-.3-9.1-.3v49.6Z"/>
  <path class="st1" d="M1473.9,89v49.5h18V39.5h-18v49.5Z"/>
  <path class="st1" d="M1627.9,89v49.5h18V39.5h-18v49.5Z"/>
  <path class="st1" d="M1725.9,89v49.5h18l.2-25.3.3-25.2,4.7,12c2.6,6.6,7,18,9.8,25.2l5.2,13.3h17.8V39.5h-18l-.2,26.5-.3,26.6-9.9-26.6-9.9-26.5h-17.7v49.5Z"/>
  <path class="st1" d="M174.9,53.2c0-.4-2.4-.6-5.2-.5-2.9.2-29.6.5-59.3.8-59.2.5-56.7.3-62.6,6.7-2.4,2.5-5.9,8.3-5.9,9.8s27.9.5,62,.5,62,.4,62,.9-1.8,4.3-4,8.3-4,7.6-4,8,53,.8,117.8.8h117.9l4.3-2.3c3.4-1.8,5.2-3.7,7.8-8.5l3.4-6.2h-120.6c-66.2,0-120.7-.4-121-.8"/>
  <path class="st0" d="M161.9,79.6c-2.2,4-4,7.6-4,8s53,.8,117.8.8h117.9l4.3-2.3c3.4-1.8,5.2-3.7,7.8-8.5l3.4-6.2h-120.6c-66.2,0-121.9-.4-122.2-.8"/>
  <path class="st1" d="M38.6,89.5c-2,.4-4.9,1.8-6.3,3.1-2.3,2.2-8.4,11.8-8.4,13.3s27.9.6,62,.6,62,.2,62,.5-1.8,4.1-4,8.5-4,8.2-4,8.6,53.5.4,118.9.2l118.9-.3,3.7-3c2-1.7,4.9-5.4,6.6-8.3l2.9-5.2h-16.2c-9,0-63.4,0-121,0-67.1,0-104.9-.2-105.3-.9-.3-.5.1-2,.8-3.2,2-3.2,7.7-13.8,7.7-14.4s-114.3-.2-118.3.6h0Z"/>
  <path class="st0" d="M19.8,125.8c-5,1.3-8.1,4-11.5,10l-3.2,5.5,3,.6c1.7.3,28.4.6,59.5.6,65.7,0,61.5.6,67.4-10.2,1.9-3.5,3.5-6.6,3.7-7,.5-1-114.9-.5-118.9.5h0Z"/>
  <path class="st0" d="M143.7,115.9c-2.2,4-3.8,7.7-3.8,8.1s52.8.7,117.6.7l120.2-.8,2-1.5c3.1-2.5,5-4.1,7.8-8.5l3.4-6.5h-120.7c-66.2,0-121.6-.5-121.9-.9"/>
</svg>