<?xml version="1.0" encoding="UTF-8"?>
<svg id="svg" xmlns="http://www.w3.org/2000/svg" version="1.1" viewBox="0 0 306 306.4">
  <!-- Generator: Adobe Illustrator 29.0.1, SVG Export Plug-In . SVG Version: 2.1.0 Build 192)  -->
  <defs>
    <style>
      .st0 {
        fill: #8a263c;
      }

      .st0, .st1 {
        fill-rule: evenodd;
      }

      .st1 {
        fill: #1b3d6a;
      }
    </style>
  </defs>
  <g id="svgg">
    <path id="path0" class="st1" d="M52.2,9c-7.3,3.6-11.1,10.4-11.1,19.7v5.1l-4.3.9c-13.1,2.7-25.3,14-29.3,27.2-2.4,7.8-2.4,201.9,0,209.7,3.8,12.3,14.1,22.7,26.4,26.5,7.9,2.4,228.4,2.4,236.3,0,12.3-3.8,22.6-14.1,26.4-26.5,2.4-7.8,2.4-201.8,0-209.7-4.1-13.2-16.2-24.5-29.3-27.2l-4.3-.9v-5.6c0-12.6-7.9-20.8-20.1-20.8s-20.5,8.7-20.5,22.2v4.3h-19.5v-4.5c0-13.3-8.1-22.1-20.5-22.1s-20.1,8.2-20.1,21.4v5.2h-20.3v-5.2c0-13.2-7.7-21.4-20.1-21.4s-20.5,8.7-20.5,22.1v4.5h-19.5v-4.5c0-16.6-15.5-27.3-29.5-20.4M66.2,20.6c4.3,3.3,5.6,31.7,1.8,36-4,4.5-10.4,4.5-13.7,0-1.8-2.6-2.4-29.7-.7-33.1,2.3-4.5,8.7-6,12.6-2.9M126.1,20.1c3.6,1.9,4,4,4,19.7s-.5,18.2-6,19.7c-8.5,2.3-11.2-2.5-11.2-20.1s3.7-24.2,13.2-19.4M187,20.2c4.5,3.1,6.3,29.1,2.5,35.4-3.3,5.4-10.5,5.9-14,.9-1.8-2.6-2.4-29.7-.7-33.1,2.2-4.2,8.4-5.9,12.2-3.2M246.8,19.9c4.8,2.2,7,30.8,2.9,36.7-3.2,4.5-9.6,4.5-13.7,0-1.9-2.2-2.8-28.1-1.1-32.2,1.9-4.6,7.2-6.6,11.9-4.5M43.3,61.4c11.6,18.8,38.4,10.7,38.4-11.7v-4.2h19.5v4.2c0,12.7,8.2,21.7,19.9,21.9,12.4.3,20.7-8.3,20.7-21.2v-4.9h20.3v4.9c0,12.9,8.4,21.4,20.8,21.2,11.6-.2,19.8-9.3,19.8-21.9v-4.2h19.5v4.2c0,27.9,38.6,30.2,40.6,2.4l.5-6.5,4,1.4c12.8,4.3,18.8,14.2,19.6,32.3l.5,10.8H16.6l.5-10.8c.8-18,6.8-27.9,19.6-32.3l4-1.4.5,6.5c.3,4.7.9,7.2,2.2,9.2M287,183.3c-.2,75.7-.3,81.7-1.6,85-3.3,8.5-10,15.2-18.5,18.5-5.4,2.2-224.2,2.2-229.7,0-8.5-3.4-15.2-10.1-18.5-18.5-1.3-3.3-1.4-9.2-1.6-85l-.2-81.4h270.4l-.2,81.4M53.9,129.9c-7.5,3.4-9.3,8.7-8.8,27.1.5,21.3,2.5,23,26,23s25.7-1.4,26.1-23.5c.3-18.7-1.1-23.1-8.8-26.6-4.7-2.1-29.8-2.1-34.4,0M134.2,130.1c-6.8,3.4-7.5,5.7-7.8,23.4-.3,17.5.2,19.6,5.8,23.9l2.9,2.2h33.8l2.9-2.2c5.4-4.1,6-6.3,6-22.9s-.8-19.8-6.5-23.6c-4.6-3-31.6-3.6-37.1-.8M239,147.3l-12.7,12.7-6.6-6.4c-7.3-7.1-9.7-8-12.9-4.6-3.5,3.7-2.5,6,6.6,15.4,13.3,13.6,11.9,13.9,31.8-6,16.7-16.8,17.6-18.3,13.9-22.1-3.9-3.9-6.1-2.7-20.1,11.1M84.4,141.3c1.6,1.6,1.8,24.4.3,26-1.8,1.8-26.2,1.3-27.2-.6-1.4-2.6-1-22.8.4-24.9,1.6-2.3,24.3-2.7,26.5-.5M165.1,141.1c1.3,1.3,1.3,24.9,0,26.2s-24.9,1.3-26.2,0-.9-4.7-.9-13.1.3-12.5.9-13.1c.6-.6,4.7-.9,13.1-.9s12.5.3,13.1.9M57.4,204.1c-9.5,2-11.9,6.6-12.3,23.1-.6,25.4,2.3,28.5,26,28.5s26.5-2.8,26-28.2l-.3-13.9-2.3-3.3c-4-5.7-6.6-6.5-21.5-6.7-7.1,0-14.2.1-15.7.4M137.8,204.1c-3.7.8-6.3,2.5-9,6.1l-2.2,2.9-.2,15.5c-.4,25,1.6,27.2,25.6,27.2s26-2.1,25.6-27.2l-.2-15.6-2.4-3c-4.6-5.6-6.1-6.1-21-6.3-7.3,0-14.6.1-16.1.4M218.6,204.2c-9.4,2-11.4,6-11.8,23.5-.5,25.2,2.2,28,26,28s26.6-3.2,26.1-28.5c-.3-14.7-1.4-17.7-7.7-21.3-3.8-2.2-24.8-3.3-32.7-1.7M83.9,216.3c2.3,1.6,2.7,24.2.5,26.5-2.2,2.2-24.9,1.8-26.5-.5-2-2.9-1.8-23.5.3-25.6,2.1-2.1,22.7-2.4,25.6-.3M165.3,216.7c1.6,2.5.9,25.6-.7,26.5-2,1.1-23.1,1.1-25.1,0-1.6-.8-2.4-24-.9-26.2,1.5-2.3,25.4-2.5,26.8-.3M245.8,216.7c2.1,2.1,2.4,22.7.3,25.6-1.6,2.3-24.2,2.7-26.5.5-2.2-2.2-1.8-24.9.5-26.5,2.9-2,23.5-1.8,25.6.3"/>
    <path class="st0" d="M238.9,147.1l-12.7,12.7-6.6-6.4c-7.3-7.1-9.7-8-12.9-4.6-3.5,3.7-2.5,6,6.6,15.4,13.3,13.6,11.9,13.9,31.8-6,16.7-16.8,17.6-18.3,13.9-22.1-3.9-3.9-6.1-2.7-20.1,11.1"/>
  </g>
</svg>